<svg id="Layer_1" data-name="Layer 1" xmlns="http://www.w3.org/2000/svg" viewBox="0 0 418.2 387.33"><defs><style>.cls-1{fill:#90cd96;}.cls-2{fill:#fffeff;}.cls-3{fill:#753c5b;}.cls-4{fill:#9ba7d5;}.cls-5{fill:#f37f80;}</style></defs><polyline class="cls-1" points="209.9 0 176.12 18.29 158.6 27.78 0 113.67 210.26 245.2 314.23 177.34 342.07 159.17 418.2 109.48"/><path class="cls-2" d="M203.12,46.78C198.88,53.86,191.74,58.49,183.9,61a5.27,5.27,0,0,1-1.65.27L340.8,216.65a5.27,5.27,0,0,1,3.15-1.48,5.45,5.45,0,0,1,3.4-2,5.55,5.55,0,0,1,2.35-1.6,5.5,5.5,0,0,1,2.54-1.47,5.62,5.62,0,0,1,3.4-2.47A5.69,5.69,0,0,1,359,205q.67-.53,1.38-1a5.65,5.65,0,0,1,1.63-1.49Z" transform="translate(-19.92 -42.38)"/><path class="cls-3" d="M325,287.5" transform="translate(-19.92 -42.38)"/><path class="cls-2" d="M79.68,115.22A4.81,4.81,0,0,1,77.8,117c-13,7.28-25.82,14.74-38.43,22.61L272.18,260.17l38.68-25.25Z" transform="translate(-19.92 -42.38)"/><path class="cls-2" d="M297.62,68.94,35.15,171.83c2.17,1.41,5.12,1.68,7.45,2.76,3.47,1.6,3.41,5.34,1.59,7.68L308.65,78.6A79,79,0,0,1,297.62,68.94Z" transform="translate(-19.92 -42.38)"/><path class="cls-2" d="M345.13,97.48,144.72,234.12l12.06,7.54L358.13,104.37C353.77,102.11,349.46,99.76,345.13,97.48Z" transform="translate(-19.92 -42.38)"/><polygon class="cls-4" points="4.63 256.36 43.54 237.2 209.55 343.67 377.5 232.6 414.22 253.26 209.55 387.33 4.63 256.36"/><polygon class="cls-5" points="4.31 185.13 43.22 165.96 209.23 272.43 377.17 161.37 413.9 182.03 209.23 316.09 4.31 185.13"/></svg>